<svg width="23" height="23" viewBox="0 0 23 23" fill="none" xmlns="http://www.w3.org/2000/svg">
<path fill-rule="evenodd" clip-rule="evenodd" d="M2.78174 4.68978L2.78191 4.6837C2.79304 4.34651 2.88275 3.99851 3.0316 3.69778C3.15048 3.45761 3.31423 3.24593 3.54249 3.09221C3.76495 2.94239 4.10324 2.81041 4.63648 2.81041C5.16974 2.81041 5.50803 2.94239 5.73048 3.09221C6.01702 3.28519 6.20577 3.57936 6.32223 3.88286C5.76938 4.02948 5.31 4.28787 4.93839 4.62299C4.36225 5.14256 4.06365 5.78583 3.90676 6.29692C3.72821 6.8786 3.8877 7.44544 4.23553 7.8415C4.56935 8.22161 5.0581 8.43135 5.56386 8.43135H9.27334C9.77913 8.43135 10.2679 8.22161 10.6017 7.8415C10.9495 7.44544 11.109 6.8786 10.9305 6.29692C10.7735 5.78583 10.4749 5.14256 9.89885 4.62299C9.4666 4.23322 8.91566 3.94725 8.23702 3.82021C8.17302 3.53704 8.06944 3.2016 7.9003 2.85987C7.67141 2.39742 7.31352 1.90648 6.75931 1.53324C6.1993 1.1561 5.49429 0.936768 4.63648 0.936768C3.77869 0.936768 3.07368 1.1561 2.51366 1.53324C1.95945 1.90648 1.60156 2.39742 1.37267 2.85987C1.1456 3.31864 1.03668 3.76608 0.983089 4.09091C0.951067 4.285 0.92818 4.48279 0.927011 4.67986L0.927002 12.1786C0.927104 12.2635 0.928903 12.3474 0.935014 12.4987C0.942841 12.6922 0.958347 12.9655 0.989136 13.2922C1.05031 13.941 1.17372 14.8216 1.42637 15.7149C1.67594 16.5973 2.07079 17.562 2.7152 18.3214C3.38317 19.1087 4.32302 19.6732 5.56386 19.6732V20.6101C5.56386 21.1275 5.97906 21.5469 6.49123 21.5469C7.0034 21.5469 7.4186 21.1275 7.4186 20.6101V19.6732H14.8376V20.6101C14.8376 21.1275 15.2527 21.5469 15.7649 21.5469C16.2771 21.5469 16.6923 21.1275 16.6923 20.6101V19.6732C18.6286 19.6732 19.7532 18.3298 20.3648 16.9968C20.9741 15.669 21.1932 14.134 21.2759 13.1944C21.3737 12.0835 20.4827 11.2418 19.4744 11.2418H2.78174V4.68978ZM2.83562 13.1155C2.89039 13.696 2.99882 14.4544 3.20974 15.2002C3.42386 15.9572 3.72454 16.6319 4.12343 17.1021C4.49874 17.5444 4.94995 17.7996 5.56386 17.7996H16.6923C17.5852 17.7996 18.2109 17.2357 18.6821 16.2089C19.14 15.2108 19.3386 13.983 19.4205 13.1155H2.83562ZM8.66363 6.02071C8.82937 6.17017 8.95434 6.35689 9.04717 6.55771H5.79002C5.88285 6.35689 6.00783 6.17017 6.17356 6.02071C6.40002 5.81649 6.76829 5.62088 7.4186 5.62088C8.06891 5.62088 8.43718 5.81649 8.66363 6.02071Z" fill="white"/>
</svg>
