<svg width="23" height="23" viewBox="0 0 23 23" fill="none" xmlns="http://www.w3.org/2000/svg">
<g clip-path="url(#clip0_1553_2675)">
<path fill-rule="evenodd" clip-rule="evenodd" d="M1.85425 5.62066C1.85425 5.10327 1.43905 4.68384 0.926883 4.68384C0.41471 4.68384 -0.000488281 5.10327 -0.000488281 5.62066V16.8625C-0.000488281 17.3799 0.41471 17.7994 0.926883 17.7994C1.43905 17.7994 1.85425 17.3799 1.85425 16.8625V14.9889H20.4017V16.8625C20.4017 17.3799 20.8169 17.7994 21.329 17.7994C21.8412 17.7994 22.2564 17.3799 22.2564 16.8625V9.36795C22.2564 7.29838 20.5956 5.62066 18.5469 5.62066H12.0553C11.031 5.62066 10.2006 6.45952 10.2006 7.49431V13.1152H1.85425V5.62066ZM20.4017 9.36795V13.1152H12.0553V7.49431H18.5469C19.5713 7.49431 20.4017 8.33317 20.4017 9.36795Z" fill="white"/>
<path fill-rule="evenodd" clip-rule="evenodd" d="M6.02754 12.1785C7.82014 12.1785 9.27333 10.7105 9.27333 8.89961C9.27333 7.08873 7.82014 5.62073 6.02754 5.62073C4.23493 5.62073 2.78174 7.08873 2.78174 8.89961C2.78174 10.7105 4.23493 12.1785 6.02754 12.1785ZM6.02754 10.3797C5.21833 10.3797 4.56235 9.71708 4.56235 8.89961C4.56235 8.08216 5.21833 7.41948 6.02754 7.41948C6.83674 7.41948 7.49273 8.08216 7.49273 8.89961C7.49273 9.71708 6.83674 10.3797 6.02754 10.3797Z" fill="white"/>
</g>
<defs>
<clipPath id="clip0_1553_2675">
<rect width="22.2569" height="22.4838" fill="white"/>
</clipPath>
</defs>
</svg>
