<svg width="47" height="47" viewBox="0 0 47 47" fill="none" xmlns="http://www.w3.org/2000/svg">
<rect width="46.8571" height="46.8571" rx="23.4286" fill="#2F2F2F"/>
<path d="M23.4286 10.25C16.1622 10.25 10.25 16.1622 10.25 23.4286C10.25 30.6949 16.1622 36.6071 23.4286 36.6071C30.6949 36.6071 36.6071 30.6949 36.6071 23.4286C36.6071 16.1622 30.6949 10.25 23.4286 10.25ZM32.1412 16.327C33.7095 18.2428 34.6567 20.6825 34.6814 23.3396C34.3091 23.2605 30.5911 22.5061 26.8435 22.9772L26.6013 22.3957C26.3664 21.8459 26.1175 21.3021 25.8551 20.7649C30.0179 19.0665 31.904 16.6482 32.1412 16.327ZM23.4286 12.1889C26.2883 12.1889 28.9026 13.2613 30.8893 15.0256C30.6883 15.3138 28.9949 17.5904 24.9919 19.0911C23.1469 15.7026 21.1026 12.9186 20.7912 12.5019C21.6549 12.2936 22.5402 12.1886 23.4286 12.1889ZM18.6431 13.258C18.9396 13.6649 20.951 16.4522 22.8158 19.7682C17.5509 21.1668 12.9138 21.147 12.4096 21.1404C13.1394 17.6465 15.4934 14.7439 18.6431 13.258ZM12.1708 23.4451L12.1757 23.1007C12.6682 23.1122 18.1242 23.1814 23.7432 21.4995C24.0662 22.1276 24.3711 22.7648 24.6574 23.4104L24.2127 23.5438C18.4091 25.4201 15.3204 30.5367 15.0634 30.9716C13.2679 28.9767 12.1724 26.3377 12.1708 23.4451ZM23.4269 34.7012C20.8258 34.7012 18.4273 33.8149 16.518 32.3257C16.7206 31.9139 19.0005 27.509 25.3493 25.2966L25.4234 25.2719C27.0049 29.377 27.6556 32.8199 27.8252 33.8083C26.4761 34.3832 24.9886 34.7028 23.4269 34.7012ZM29.718 32.7771C29.6027 32.0918 29.0014 28.7972 27.532 24.7514C31.0589 24.1863 34.1576 25.1121 34.543 25.234C34.039 28.3639 32.245 31.0705 29.718 32.7771Z" fill="white"/>
</svg>
