<svg width="50" height="50" viewBox="0 0 50 50" fill="none" xmlns="http://www.w3.org/2000/svg">
<path d="M23.1945 8.60958C23.672 7.23601 23.9107 6.54925 24.2638 6.35891C24.5693 6.19417 24.937 6.19417 25.2427 6.35891C25.5956 6.54925 25.8343 7.23601 26.3118 8.60958L29.4683 17.6902C29.6042 18.0812 29.6721 18.2766 29.7946 18.4222C29.9027 18.5508 30.0407 18.651 30.1964 18.7141C30.3726 18.7856 30.5794 18.7898 30.9932 18.7982L40.6048 18.9941C42.0588 19.0237 42.7856 19.0385 43.0759 19.3154C43.3269 19.5551 43.4405 19.905 43.3783 20.2465C43.3065 20.6411 42.7271 21.0802 41.5683 21.9589L33.9073 27.7667C33.5775 28.0169 33.4127 28.1419 33.3121 28.3032C33.2232 28.446 33.1706 28.6081 33.1586 28.7756C33.1452 28.9654 33.205 29.1634 33.3248 29.5596L36.1088 38.7613C36.5298 40.1532 36.7404 40.8492 36.5667 41.2105C36.4164 41.5235 36.1187 41.7396 35.7747 41.786C35.3772 41.8395 34.7805 41.4242 33.5868 40.5936L25.6957 35.1026C25.356 34.8662 25.1862 34.748 25.0016 34.702C24.8384 34.6616 24.6679 34.6616 24.5049 34.702C24.3203 34.748 24.1503 34.8662 23.8106 35.1026L15.9196 40.5936C14.726 41.4242 14.1292 41.8395 13.7317 41.786C13.3877 41.7396 13.0901 41.5235 12.9397 41.2105C12.766 40.8492 12.9766 40.1532 13.3977 38.7613L16.1815 29.5596C16.3014 29.1634 16.3613 28.9654 16.3478 28.7756C16.3359 28.6081 16.2832 28.446 16.1943 28.3032C16.0937 28.1419 15.9288 28.0169 15.599 27.7667L7.9382 21.9589C6.7794 21.0802 6.2 20.6411 6.12808 20.2465C6.0658 19.905 6.1795 19.5551 6.43059 19.3154C6.72068 19.0385 7.44762 19.0237 8.90149 18.9941L18.5131 18.7982C18.9269 18.7898 19.1338 18.7856 19.31 18.7141C19.4658 18.651 19.6037 18.5508 19.7118 18.4222C19.8343 18.2766 19.9022 18.0812 20.0381 17.6902L23.1945 8.60958Z" stroke="#2530FF" stroke-width="4.12532" stroke-linecap="round" stroke-linejoin="round"/>
</svg>
