<svg width="426" height="109" viewBox="0 0 426 109" fill="none" xmlns="http://www.w3.org/2000/svg">
<path d="M158.679 30.0197C98.9618 37.1077 66.9451 53.5506 3.5606 77.7008C42.8764 56.1416 64.9993 44.0992 103.567 22.1245C125.139 24.8596 137.18 26.7658 158.679 30.0197Z" fill="black"/>
<path d="M85.2995 28.6265L0 77.2364C25.9122 58.1108 40.4292 47.314 66.4129 28.6265H85.2995Z" fill="black"/>
<path d="M225.556 42.5596C205.767 31.3217 131.277 49.6445 4.64453 80.4877C107.646 43.3632 165.574 20.1832 265.342 25.995C245.424 45.5037 233.572 56.5194 212.552 76.153C224.933 55.1303 229.239 46.2014 225.556 42.5596Z" fill="black"/>
<path d="M97.6723 67.6812C69.2889 67.2929 49.1391 79.9736 49.1391 79.9736C49.1391 79.9736 73.2694 69.8239 98.4263 73.0467C123.583 76.2695 140.722 82.23 167.905 78.4461C185.054 76.059 198.441 72.8149 210.459 66.525C170.314 76.0797 126.056 68.0694 97.6723 67.6812Z" fill="black"/>
<path d="M97.9152 80.1168C64.2427 75.1011 43.9661 90.0864 43.9661 90.0864C43.9661 90.0864 71.5987 80.5164 96.7557 83.7393C121.913 86.9621 134.374 95.0403 162.085 92.4093C179.322 90.7727 192.621 86.7781 204.639 80.4881C164.516 90.0375 131.625 85.1381 97.9723 80.1253L97.9152 80.1168Z" fill="black"/>
<path d="M293.576 27.388C293.576 27.2586 293.576 26.975 293.576 26.5372C293.586 26.0993 293.591 25.5918 293.591 25.0146C293.601 24.4374 293.606 23.8702 293.606 23.3129C293.606 22.7557 293.606 22.288 293.606 21.9098C293.606 21.5217 293.601 21.3177 293.591 21.2978C293.312 20.641 293.014 19.9892 292.695 19.3424C292.387 18.6956 292.078 18.0537 291.77 17.4168C291.033 15.8246 290.287 14.2424 289.531 12.6701C288.774 11.0978 288.013 9.52546 287.247 7.95316C287.157 7.77404 287.113 7.61979 287.113 7.49042C287.113 7.30135 287.192 7.18691 287.351 7.1471C287.511 7.09735 287.655 7.07247 287.784 7.07247H291.098C291.347 7.07247 291.536 7.19686 291.665 7.44564C291.874 7.84369 292.063 8.2716 292.232 8.72936C292.412 9.18712 292.591 9.62497 292.77 10.0429C293.208 11.1077 293.646 12.1725 294.083 13.2373C294.521 14.3021 294.969 15.3669 295.427 16.4316C295.447 16.4615 295.467 16.5013 295.487 16.5511C295.516 16.6008 295.551 16.6257 295.591 16.6257C295.641 16.6257 295.676 16.6008 295.696 16.5511C295.725 16.4914 295.745 16.4466 295.755 16.4167C296.203 15.3519 296.641 14.2871 297.069 13.2224C297.497 12.1576 297.925 11.0978 298.353 10.0429C298.512 9.66478 298.686 9.22195 298.875 8.71443C299.074 8.20692 299.258 7.78399 299.427 7.44564C299.567 7.19686 299.756 7.07247 299.994 7.07247H303.293C303.433 7.07247 303.582 7.09735 303.741 7.1471C303.9 7.18691 303.98 7.30135 303.98 7.49042C303.98 7.62974 303.935 7.78896 303.846 7.96808C303.04 9.62 302.229 11.2669 301.413 12.9089C300.606 14.5409 299.805 16.1878 299.009 17.8497C298.731 18.4169 298.452 18.9891 298.173 19.5663C297.895 20.1335 297.626 20.7107 297.367 21.2978L297.352 21.3725C297.352 22.3676 297.357 23.3677 297.367 24.3728C297.377 25.3778 297.382 26.3829 297.382 27.388C297.382 27.796 297.178 28 296.77 28H294.188C293.78 28 293.576 27.796 293.576 27.388ZM309.38 28C309.241 28 309.091 27.9801 308.932 27.9403C308.773 27.8905 308.693 27.7711 308.693 27.582C308.693 27.5024 308.708 27.4228 308.738 27.3432C308.768 27.2636 308.798 27.189 308.828 27.1193C309.703 25.2286 310.569 23.3378 311.425 21.4471C312.291 19.5563 313.142 17.6557 313.977 15.745C314.664 14.1727 315.346 12.6004 316.022 11.0281C316.699 9.44585 317.396 7.87852 318.112 6.32612C318.142 6.26642 318.192 6.23656 318.261 6.23656C318.331 6.23656 318.381 6.26642 318.411 6.32612C319.127 7.87852 319.824 9.44585 320.5 11.0281C321.177 12.6004 321.859 14.1727 322.545 15.745C323.381 17.6557 324.227 19.5563 325.083 21.4471C325.949 23.3378 326.82 25.2286 327.695 27.1193C327.725 27.189 327.755 27.2636 327.785 27.3432C327.815 27.4228 327.83 27.5024 327.83 27.582C327.83 27.7711 327.75 27.8905 327.591 27.9403C327.432 27.9801 327.282 28 327.143 28H324.128C323.879 28 323.69 27.8756 323.561 27.6268C323.481 27.4676 323.406 27.2984 323.337 27.1193C323.267 26.9402 323.197 26.771 323.128 26.6118C322.909 26.1142 322.695 25.6067 322.486 25.0893C322.287 24.5718 322.073 24.0643 321.844 23.5667C321.814 23.4871 321.759 23.4473 321.68 23.4473H314.291C314.211 23.4473 314.157 23.4871 314.127 23.5667C313.888 24.0643 313.659 24.5718 313.44 25.0893C313.231 25.6067 313.012 26.1192 312.783 26.6267C312.714 26.7859 312.639 26.9551 312.559 27.1342C312.49 27.3134 312.41 27.4825 312.321 27.6418C312.191 27.8806 312.007 28 311.768 28H309.38ZM315.53 20.3276H320.5C320.102 19.3324 319.699 18.3423 319.291 17.3571C318.883 16.362 318.475 15.3669 318.067 14.3717C317.649 15.3669 317.227 16.362 316.799 17.3571C316.381 18.3423 315.958 19.3324 315.53 20.3276ZM347.335 23.298C347.475 23.298 347.579 23.3478 347.649 23.4473C347.729 23.5369 347.798 23.6364 347.858 23.7458C347.918 23.8453 348.037 24.0792 348.216 24.4474C348.395 24.8056 348.564 25.1639 348.724 25.5221C348.883 25.8704 348.963 26.0844 348.963 26.164C348.963 26.3133 348.878 26.4576 348.709 26.5969C348.002 27.1342 347.122 27.5422 346.067 27.8209C345.012 28.0896 344.042 28.2239 343.156 28.2239C341.066 28.2239 339.27 27.7512 337.767 26.8058C336.275 25.8605 335.125 24.5817 334.319 22.9696C333.523 21.3575 333.125 19.5464 333.125 17.5362C333.125 16.0933 333.334 14.73 333.752 13.4463C334.18 12.1526 334.802 11.0132 335.618 10.028C336.434 9.03287 337.434 8.25667 338.618 7.6994C339.812 7.13218 341.176 6.84857 342.708 6.84857C343.614 6.84857 344.579 6.97296 345.604 7.22174C346.629 7.47052 347.52 7.84369 348.276 8.34126C348.475 8.47062 348.574 8.61989 348.574 8.78907C348.574 8.83882 348.525 8.98311 348.425 9.22195C348.336 9.46078 348.226 9.73444 348.097 10.0429C347.967 10.3415 347.843 10.6151 347.724 10.8639C347.614 11.1127 347.539 11.2769 347.5 11.3565C347.45 11.456 347.385 11.5605 347.306 11.67C347.236 11.7695 347.131 11.8192 346.992 11.8192C346.903 11.8192 346.818 11.7993 346.738 11.7595C346.669 11.7098 346.594 11.665 346.515 11.6252C345.947 11.2669 345.37 10.9833 344.783 10.7743C344.206 10.5554 343.574 10.446 342.887 10.446C341.962 10.446 341.136 10.6549 340.409 11.0729C339.683 11.4809 339.066 12.0282 338.558 12.7148C338.061 13.4015 337.683 14.1628 337.424 14.9987C337.165 15.8346 337.036 16.6705 337.036 17.5064C337.036 18.7702 337.255 19.9444 337.693 21.0291C338.141 22.1039 338.817 22.9746 339.723 23.6413C340.628 24.2981 341.768 24.6265 343.141 24.6265C343.838 24.6265 344.479 24.532 345.067 24.3429C345.664 24.1538 346.251 23.8752 346.828 23.507C346.908 23.4572 346.987 23.4125 347.067 23.3727C347.146 23.3229 347.236 23.298 347.335 23.298ZM373.185 7.07247C373.593 7.07247 373.797 7.28145 373.797 7.6994C373.797 8.20692 373.787 8.71443 373.767 9.22195C373.748 9.72946 373.733 10.237 373.723 10.7445C373.703 11.8093 373.688 12.879 373.678 13.9538C373.668 15.0285 373.663 16.0983 373.663 17.1631C373.663 18.3075 373.668 19.4568 373.678 20.6112C373.688 21.7655 373.703 22.9199 373.723 24.0742C373.743 24.6215 373.762 25.1738 373.782 25.7311C373.802 26.2784 373.812 26.8257 373.812 27.3731C373.812 27.791 373.608 28 373.2 28H370.633C370.414 28 370.265 27.9502 370.185 27.8507C370.105 27.7512 370.051 27.6019 370.021 27.4029C370.001 27.2238 369.986 26.975 369.976 26.6566C369.976 26.3282 369.976 25.9948 369.976 25.6565C369.986 25.3181 369.991 25.0445 369.991 24.8355C369.961 23.0443 369.946 21.253 369.946 19.4618C369.946 19.3424 369.881 19.2827 369.752 19.2827H359.721C359.602 19.2827 359.542 19.3424 359.542 19.4618C359.542 21.253 359.527 23.0443 359.497 24.8355C359.497 25.0445 359.497 25.3181 359.497 25.6565C359.507 25.9948 359.512 26.3282 359.512 26.6566C359.512 26.975 359.497 27.2238 359.467 27.4029C359.438 27.6019 359.383 27.7512 359.303 27.8507C359.234 27.9502 359.084 28 358.855 28H356.273C355.865 28 355.661 27.791 355.661 27.3731C355.661 26.8257 355.671 26.2784 355.691 25.7311C355.721 25.1738 355.741 24.6215 355.751 24.0742C355.771 22.9199 355.786 21.7655 355.795 20.6112C355.805 19.4568 355.81 18.3075 355.81 17.1631C355.81 16.0983 355.805 15.0285 355.795 13.9538C355.786 12.879 355.771 11.8093 355.751 10.7445C355.741 10.237 355.726 9.72946 355.706 9.22195C355.686 8.71443 355.676 8.20692 355.676 7.6994C355.676 7.28145 355.88 7.07247 356.288 7.07247H358.87C359.099 7.07247 359.249 7.12223 359.318 7.22174C359.398 7.32125 359.453 7.47052 359.482 7.66955C359.522 7.93823 359.532 8.35121 359.512 8.90848C359.502 9.4558 359.502 9.88868 359.512 10.2071C359.522 11.0928 359.527 11.9834 359.527 12.879C359.537 13.7647 359.542 14.6504 359.542 15.536C359.542 15.6554 359.607 15.7152 359.736 15.7152H369.752C369.881 15.7152 369.946 15.6554 369.946 15.536C369.946 14.6504 369.946 13.7647 369.946 12.879C369.956 11.9834 369.966 11.0928 369.976 10.2071C369.986 9.88868 369.981 9.4558 369.961 8.90848C369.951 8.35121 369.966 7.93823 370.006 7.66955C370.036 7.47052 370.09 7.32125 370.17 7.22174C370.25 7.12223 370.399 7.07247 370.618 7.07247H373.185ZM380.257 7.6994C380.257 7.28145 380.461 7.07247 380.869 7.07247H393.527C393.935 7.07247 394.139 7.28145 394.139 7.6994C394.139 8.0875 394.139 8.48555 394.139 8.89355C394.149 9.2916 394.139 9.68468 394.109 10.0728C394.079 10.4708 393.875 10.6699 393.497 10.6699H389.168C389.049 10.6699 388.989 10.7296 388.989 10.849C388.989 11.9038 388.984 12.9586 388.974 14.0135C388.974 15.0584 388.974 16.1082 388.974 17.1631C388.974 18.8647 388.979 20.5714 388.989 22.283C388.999 23.9847 389.004 25.6863 389.004 27.388C389.004 27.796 388.8 28 388.392 28H385.81C385.402 28 385.198 27.796 385.198 27.388C385.198 25.6366 385.203 23.8851 385.213 22.1337C385.233 20.3823 385.243 18.6359 385.243 16.8944L385.228 10.849C385.228 10.7296 385.163 10.6699 385.034 10.6699H380.899C380.521 10.6699 380.317 10.4708 380.287 10.0728C380.257 9.68468 380.242 9.2916 380.242 8.89355C380.252 8.48555 380.257 8.0875 380.257 7.6994ZM305.965 41.0725C306.373 41.0725 306.577 41.2814 306.577 41.6994C306.577 42.2069 306.567 42.7144 306.547 43.2219C306.528 43.7295 306.513 44.237 306.503 44.7445C306.483 45.8093 306.468 46.879 306.458 47.9538C306.448 49.0285 306.443 50.0983 306.443 51.1631C306.443 52.3075 306.448 53.4568 306.458 54.6112C306.468 55.7655 306.483 56.9199 306.503 58.0742C306.523 58.6215 306.542 59.1738 306.562 59.7311C306.582 60.2784 306.592 60.8257 306.592 61.3731C306.592 61.791 306.388 62 305.98 62H303.413C303.194 62 303.045 61.9502 302.965 61.8507C302.885 61.7512 302.831 61.6019 302.801 61.4029C302.781 61.2238 302.766 60.975 302.756 60.6566C302.756 60.3282 302.756 59.9948 302.756 59.6565C302.766 59.3181 302.771 59.0445 302.771 58.8355C302.741 57.0443 302.726 55.253 302.726 53.4618C302.726 53.3424 302.661 53.2827 302.532 53.2827H292.501C292.382 53.2827 292.322 53.3424 292.322 53.4618C292.322 55.253 292.307 57.0443 292.277 58.8355C292.277 59.0445 292.277 59.3181 292.277 59.6565C292.287 59.9948 292.292 60.3282 292.292 60.6566C292.292 60.975 292.277 61.2238 292.247 61.4029C292.218 61.6019 292.163 61.7512 292.083 61.8507C292.014 61.9502 291.864 62 291.635 62H289.053C288.645 62 288.441 61.791 288.441 61.3731C288.441 60.8257 288.451 60.2784 288.471 59.7311C288.501 59.1738 288.521 58.6215 288.531 58.0742C288.551 56.9199 288.565 55.7655 288.575 54.6112C288.585 53.4568 288.59 52.3075 288.59 51.1631C288.59 50.0983 288.585 49.0285 288.575 47.9538C288.565 46.879 288.551 45.8093 288.531 44.7445C288.521 44.237 288.506 43.7295 288.486 43.2219C288.466 42.7144 288.456 42.2069 288.456 41.6994C288.456 41.2814 288.66 41.0725 289.068 41.0725H291.65C291.879 41.0725 292.028 41.1222 292.098 41.2217C292.178 41.3213 292.232 41.4705 292.262 41.6695C292.302 41.9382 292.312 42.3512 292.292 42.9085C292.282 43.4558 292.282 43.8887 292.292 44.2071C292.302 45.0928 292.307 45.9834 292.307 46.879C292.317 47.7647 292.322 48.6504 292.322 49.536C292.322 49.6554 292.387 49.7152 292.516 49.7152H302.532C302.661 49.7152 302.726 49.6554 302.726 49.536C302.726 48.6504 302.726 47.7647 302.726 46.879C302.736 45.9834 302.746 45.0928 302.756 44.2071C302.766 43.8887 302.761 43.4558 302.741 42.9085C302.731 42.3512 302.746 41.9382 302.786 41.6695C302.816 41.4705 302.87 41.3213 302.95 41.2217C303.03 41.1222 303.179 41.0725 303.398 41.0725H305.965ZM317.59 50.8048C317.59 51.4019 317.585 51.999 317.575 52.596C317.575 53.1832 317.575 53.7703 317.575 54.3574C317.575 55.253 317.789 56.0193 318.217 56.6562C318.655 57.2831 319.232 57.7657 319.948 58.1041C320.665 58.4325 321.441 58.5967 322.277 58.5967C323.58 58.5967 324.68 58.2334 325.576 57.507C326.471 56.7806 326.919 55.7307 326.919 54.3574C326.919 53.7703 326.914 53.1832 326.904 52.596C326.904 51.999 326.904 51.4019 326.904 50.8048C326.904 49.7699 326.904 48.735 326.904 47.7C326.914 46.6651 326.924 45.6302 326.934 44.5952L326.949 42.401L326.964 41.6695C326.984 41.4705 327.033 41.3213 327.113 41.2217C327.203 41.1222 327.357 41.0725 327.576 41.0725H330.098C330.506 41.0725 330.71 41.2814 330.71 41.6994C330.71 42.2467 330.701 42.794 330.681 43.3414C330.671 43.8787 330.656 44.4161 330.636 44.9535C330.606 47.0134 330.591 49.0683 330.591 51.1183C330.591 51.6656 330.591 52.2179 330.591 52.7752C330.601 53.3324 330.606 53.8897 330.606 54.447C330.596 56.0392 330.208 57.4174 329.442 58.5817C328.685 59.746 327.675 60.6466 326.412 61.2835C325.148 61.9104 323.745 62.2239 322.202 62.2239C320.67 62.2239 319.267 61.9104 317.993 61.2835C316.729 60.6466 315.719 59.746 314.963 58.5817C314.206 57.4174 313.828 56.0392 313.828 54.447C313.828 53.8897 313.828 53.3324 313.828 52.7752C313.838 52.2179 313.843 51.6656 313.843 51.1183C313.843 49.0683 313.828 47.0134 313.798 44.9535C313.788 44.4161 313.773 43.8787 313.754 43.3414C313.734 42.794 313.724 42.2467 313.724 41.6994C313.724 41.2814 313.928 41.0725 314.336 41.0725H316.918C317.137 41.0725 317.286 41.1222 317.366 41.2217C317.455 41.3213 317.51 41.4705 317.53 41.6695L317.545 42.401L317.56 44.5952C317.57 45.6302 317.575 46.6651 317.575 47.7C317.585 48.735 317.59 49.7699 317.59 50.8048ZM337.857 41.6994C337.857 41.2814 338.061 41.0725 338.469 41.0725H344.514C345.39 41.0725 346.286 41.1471 347.201 41.2964C348.127 41.4456 348.977 41.7143 349.754 42.1024C350.54 42.4806 351.172 43.0179 351.649 43.7145C352.137 44.4012 352.381 45.2819 352.381 46.3566C352.381 47.3318 352.172 48.1876 351.754 48.924C351.346 49.6505 350.744 50.2824 349.948 50.8197C349.918 50.8396 349.883 50.8645 349.843 50.8944C349.803 50.9143 349.784 50.9491 349.784 50.9989C349.784 51.0387 349.803 51.0735 349.843 51.1034C349.893 51.1332 349.933 51.1581 349.963 51.178C350.978 51.6855 351.828 52.3124 352.515 53.0588C353.202 53.8051 353.545 54.7853 353.545 55.9994C353.545 57.1438 353.306 58.1041 352.829 58.8803C352.351 59.6465 351.714 60.2585 350.918 60.7163C350.132 61.174 349.256 61.5024 348.291 61.7015C347.335 61.9005 346.375 62 345.41 62H338.454C338.046 62 337.842 61.791 337.842 61.3731C337.842 60.8158 337.852 60.2585 337.872 59.7013C337.892 59.134 337.907 58.5718 337.917 58.0145C337.946 55.7755 337.961 53.5364 337.961 51.2974C337.961 49.2076 337.946 47.1179 337.917 45.0281C337.907 44.4708 337.892 43.9136 337.872 43.3563C337.862 42.799 337.857 42.2467 337.857 41.6994ZM341.693 49.8196H345.171C345.718 49.8196 346.246 49.7301 346.753 49.551C347.271 49.3619 347.694 49.0683 348.022 48.6703C348.351 48.2722 348.515 47.7647 348.515 47.1477C348.515 46.4611 348.311 45.9436 347.903 45.5953C347.495 45.2371 346.997 44.9933 346.41 44.8639C345.823 44.7345 345.256 44.6699 344.708 44.6699H341.678C341.688 45.5257 341.693 46.3865 341.693 47.2522C341.693 48.108 341.693 48.9638 341.693 49.8196ZM341.678 58.522H345.32C345.738 58.522 346.196 58.4872 346.694 58.4175C347.191 58.3479 347.664 58.2185 348.112 58.0294C348.569 57.8404 348.943 57.5767 349.231 57.2383C349.53 56.89 349.679 56.4472 349.679 55.9098C349.679 55.3525 349.515 54.9097 349.186 54.5813C348.858 54.243 348.44 53.9892 347.933 53.8201C347.435 53.6509 346.918 53.5414 346.38 53.4917C345.843 53.432 345.37 53.4021 344.962 53.4021H341.693C341.693 54.248 341.693 55.0988 341.693 55.9546C341.693 56.8104 341.688 57.6662 341.678 58.522ZM289.053 96C288.645 96 288.441 95.791 288.441 95.3731C288.441 94.8457 288.451 94.3232 288.471 93.8057C288.491 93.2783 288.506 92.7559 288.516 92.2384C288.536 91.0841 288.551 89.9347 288.56 88.7903C288.58 87.636 288.59 86.4866 288.59 85.3422C288.59 84.2376 288.585 83.133 288.575 82.0284C288.565 80.9238 288.551 79.8192 288.531 78.7146C288.521 78.2171 288.506 77.7145 288.486 77.207C288.466 76.6995 288.456 76.197 288.456 75.6994C288.456 75.2814 288.66 75.0725 289.068 75.0725H294.666C296.337 75.0725 297.91 75.3113 299.382 75.789C300.865 76.2666 302.154 77.0279 303.249 78.0728C304.343 79.1077 305.149 80.471 305.667 82.1628C306.035 83.3768 306.219 84.6108 306.219 85.8646C306.219 87.9046 305.756 89.6859 304.831 91.2085C303.915 92.7211 302.661 93.9003 301.069 94.7461C299.487 95.582 297.696 96 295.696 96H289.053ZM292.277 92.4026H295.039C297.258 92.4026 299.029 91.8205 300.353 90.6562C301.686 89.4819 302.353 87.7554 302.353 85.4765C302.353 84.1829 302.079 83.0235 301.532 81.9986C300.985 80.9636 300.218 80.1476 299.233 79.5505C298.248 78.9535 297.094 78.6549 295.77 78.6549H292.292C292.302 79.7098 292.307 80.7696 292.307 81.8344C292.317 82.8991 292.322 83.9639 292.322 85.0287C292.322 87.4767 292.307 89.9347 292.277 92.4026ZM316.515 84.8048C316.515 85.4019 316.51 85.999 316.5 86.596C316.5 87.1832 316.5 87.7703 316.5 88.3574C316.5 89.253 316.714 90.0193 317.142 90.6562C317.58 91.2831 318.157 91.7657 318.873 92.1041C319.59 92.4325 320.366 92.5967 321.202 92.5967C322.506 92.5967 323.605 92.2334 324.501 91.507C325.397 90.7806 325.844 89.7307 325.844 88.3574C325.844 87.7703 325.839 87.1832 325.829 86.596C325.829 85.999 325.829 85.4019 325.829 84.8048C325.829 83.7699 325.829 82.735 325.829 81.7C325.839 80.6651 325.849 79.6302 325.859 78.5952L325.874 76.401L325.889 75.6695C325.909 75.4705 325.959 75.3213 326.038 75.2217C326.128 75.1222 326.282 75.0725 326.501 75.0725H329.024C329.432 75.0725 329.636 75.2814 329.636 75.6994C329.636 76.2467 329.626 76.794 329.606 77.3414C329.596 77.8787 329.581 78.4161 329.561 78.9535C329.531 81.0134 329.516 83.0683 329.516 85.1183C329.516 85.6656 329.516 86.2179 329.516 86.7752C329.526 87.3324 329.531 87.8897 329.531 88.447C329.521 90.0392 329.133 91.4174 328.367 92.5817C327.611 93.746 326.601 94.6466 325.337 95.2835C324.073 95.9104 322.67 96.2239 321.127 96.2239C319.595 96.2239 318.192 95.9104 316.918 95.2835C315.654 94.6466 314.644 93.746 313.888 92.5817C313.132 91.4174 312.753 90.0392 312.753 88.447C312.753 87.8897 312.753 87.3324 312.753 86.7752C312.763 86.2179 312.768 85.6656 312.768 85.1183C312.768 83.0683 312.753 81.0134 312.724 78.9535C312.714 78.4161 312.699 77.8787 312.679 77.3414C312.659 76.794 312.649 76.2467 312.649 75.6994C312.649 75.2814 312.853 75.0725 313.261 75.0725H315.843C316.062 75.0725 316.211 75.1222 316.291 75.2217C316.381 75.3213 316.435 75.4705 316.455 75.6695L316.47 76.401L316.485 78.5952C316.495 79.6302 316.5 80.6651 316.5 81.7C316.51 82.735 316.515 83.7699 316.515 84.8048ZM336.782 75.6994C336.782 75.2814 336.986 75.0725 337.394 75.0725H343.44C344.315 75.0725 345.211 75.1471 346.126 75.2964C347.052 75.4456 347.903 75.7143 348.679 76.1024C349.465 76.4806 350.097 77.0179 350.575 77.7145C351.062 78.4012 351.306 79.2819 351.306 80.3566C351.306 81.3318 351.097 82.1876 350.679 82.924C350.271 83.6505 349.669 84.2824 348.873 84.8197C348.843 84.8396 348.808 84.8645 348.768 84.8944C348.729 84.9143 348.709 84.9491 348.709 84.9989C348.709 85.0387 348.729 85.0735 348.768 85.1034C348.818 85.1332 348.858 85.1581 348.888 85.178C349.903 85.6855 350.754 86.3124 351.44 87.0588C352.127 87.8051 352.47 88.7853 352.47 89.9994C352.47 91.1438 352.232 92.1041 351.754 92.8803C351.276 93.6465 350.639 94.2585 349.843 94.7163C349.057 95.174 348.181 95.5024 347.216 95.7015C346.261 95.9005 345.3 96 344.335 96H337.379C336.971 96 336.767 95.791 336.767 95.3731C336.767 94.8158 336.777 94.2585 336.797 93.7013C336.817 93.134 336.832 92.5718 336.842 92.0145C336.872 89.7755 336.887 87.5364 336.887 85.2974C336.887 83.2076 336.872 81.1179 336.842 79.0281C336.832 78.4708 336.817 77.9136 336.797 77.3563C336.787 76.799 336.782 76.2467 336.782 75.6994ZM340.618 83.8196H344.096C344.644 83.8196 345.171 83.7301 345.679 83.551C346.196 83.3619 346.619 83.0683 346.947 82.6703C347.276 82.2722 347.44 81.7647 347.44 81.1477C347.44 80.4611 347.236 79.9436 346.828 79.5953C346.42 79.2371 345.922 78.9933 345.335 78.8639C344.748 78.7345 344.181 78.6699 343.634 78.6699H340.603C340.613 79.5257 340.618 80.3865 340.618 81.2522C340.618 82.108 340.618 82.9638 340.618 83.8196ZM340.603 92.522H344.246C344.664 92.522 345.121 92.4872 345.619 92.4175C346.116 92.3479 346.589 92.2185 347.037 92.0294C347.495 91.8404 347.868 91.5767 348.156 91.2383C348.455 90.89 348.604 90.4472 348.604 89.9098C348.604 89.3525 348.44 88.9097 348.112 88.5813C347.783 88.243 347.365 87.9892 346.858 87.8201C346.36 87.6509 345.843 87.5414 345.305 87.4917C344.768 87.432 344.295 87.4021 343.887 87.4021H340.618C340.618 88.248 340.618 89.0988 340.618 89.9546C340.618 90.8104 340.613 91.6662 340.603 92.522ZM358.452 96C358.313 96 358.164 95.9801 358.005 95.9403C357.845 95.8905 357.766 95.7711 357.766 95.582C357.766 95.5024 357.781 95.4228 357.811 95.3432C357.84 95.2636 357.87 95.189 357.9 95.1193C358.776 93.2286 359.642 91.3378 360.497 89.4471C361.363 87.5563 362.214 85.6557 363.05 83.745C363.737 82.1727 364.418 80.6004 365.095 79.0281C365.772 77.4458 366.468 75.8785 367.185 74.3261C367.215 74.2664 367.264 74.2366 367.334 74.2366C367.404 74.2366 367.453 74.2664 367.483 74.3261C368.2 75.8785 368.896 77.4458 369.573 79.0281C370.25 80.6004 370.931 82.1727 371.618 83.745C372.454 85.6557 373.3 87.5563 374.156 89.4471C375.021 91.3378 375.892 93.2286 376.768 95.1193C376.798 95.189 376.827 95.2636 376.857 95.3432C376.887 95.4228 376.902 95.5024 376.902 95.582C376.902 95.7711 376.823 95.8905 376.663 95.9403C376.504 95.9801 376.355 96 376.215 96H373.2C372.951 96 372.762 95.8756 372.633 95.6268C372.553 95.4676 372.479 95.2984 372.409 95.1193C372.339 94.9402 372.27 94.771 372.2 94.6118C371.981 94.1142 371.767 93.6067 371.558 93.0893C371.359 92.5718 371.145 92.0643 370.916 91.5667C370.887 91.4871 370.832 91.4473 370.752 91.4473H363.363C363.284 91.4473 363.229 91.4871 363.199 91.5667C362.96 92.0643 362.732 92.5718 362.513 93.0893C362.304 93.6067 362.085 94.1192 361.856 94.6267C361.786 94.7859 361.711 94.9551 361.632 95.1342C361.562 95.3134 361.483 95.4825 361.393 95.6418C361.264 95.8806 361.08 96 360.841 96H358.452ZM364.602 88.3276H369.573C369.175 87.3324 368.772 86.3423 368.364 85.3571C367.956 84.362 367.548 83.3669 367.14 82.3717C366.722 83.3669 366.299 84.362 365.871 85.3571C365.453 86.3423 365.03 87.3324 364.602 88.3276ZM382.795 75.6845C382.795 75.2765 382.999 75.0725 383.407 75.0725H385.989C386.397 75.0725 386.601 75.2765 386.601 75.6845C386.601 77.3264 386.596 78.9684 386.586 80.6104C386.576 82.2523 386.571 83.8943 386.571 85.5362C386.571 87.1782 386.576 88.8202 386.586 90.4621C386.596 92.1041 386.601 93.746 386.601 95.388C386.601 95.796 386.397 96 385.989 96H383.407C382.999 96 382.795 95.796 382.795 95.388C382.795 93.746 382.8 92.1041 382.81 90.4621C382.82 88.8202 382.825 87.1782 382.825 85.5362C382.825 83.8943 382.82 82.2523 382.81 80.6104C382.8 78.9684 382.795 77.3264 382.795 75.6845Z" fill="black"/>
</svg>
