<svg width="47" height="47" viewBox="0 0 47 47" fill="none" xmlns="http://www.w3.org/2000/svg">
<rect width="46.8571" height="46.8571" rx="23.4286" fill="#2F2F2F"/>
<path d="M18.5776 11.7962C17.3315 11.8547 16.4792 12.0539 15.7369 12.3467C14.9652 12.6469 14.3121 13.0496 13.6634 13.7012C13.0687 14.2871 12.6089 14.9957 12.3163 15.7776C12.0278 16.5229 11.8331 17.3736 11.7774 18.6212C11.7218 19.8702 11.7101 20.27 11.7145 23.4504C11.7203 26.6323 11.735 27.0306 11.795 28.2811C11.8536 29.5257 12.0527 30.378 12.3456 31.1218C12.6457 31.892 13.0484 32.5451 13.7 33.1938C14.2861 33.789 14.9953 34.2488 15.7779 34.5409C16.5232 34.8294 17.3739 35.0256 18.6215 35.0798C19.8691 35.1354 20.2703 35.1471 23.4507 35.1413C26.6311 35.1354 27.0309 35.1208 28.2799 35.0622C29.5304 35.0036 30.3768 34.803 31.1206 34.5116C31.9016 34.2162 32.6087 33.754 33.1926 33.1572C33.7875 32.5708 34.2472 31.8617 34.5397 31.0794C34.8282 30.334 35.0244 29.4833 35.0786 28.2357C35.1328 26.9852 35.146 26.5869 35.1401 23.4065C35.1342 20.2246 35.1196 19.8263 35.061 18.5773C35.0025 17.3282 34.8033 16.4804 34.5105 15.7351C34.2147 14.9543 33.7525 14.2473 33.156 13.6631C32.5701 13.0677 31.8609 12.6078 31.0782 12.316C30.3329 12.0275 29.4821 11.8313 28.2345 11.7771C26.9884 11.723 26.5857 11.7098 23.4053 11.7156C20.2249 11.7215 19.8266 11.7347 18.5776 11.7962ZM18.7137 32.9727C17.5716 32.9229 16.9522 32.734 16.5378 32.5744C16.0294 32.3867 15.5692 32.0881 15.1907 31.7002C14.8005 31.3239 14.5002 30.8644 14.3121 30.356C14.151 29.9416 13.9577 29.3222 13.9036 28.1801C13.845 26.9457 13.8333 26.5752 13.826 23.4475C13.8201 20.3212 13.8318 19.9508 13.8845 18.7149C13.9343 17.5742 14.1261 16.9534 14.2843 16.5405C14.4951 15.9928 14.7485 15.6033 15.1585 15.1919C15.535 14.802 15.9944 14.5017 16.5027 14.3133C16.9156 14.1522 17.535 13.9604 18.6771 13.9062C19.913 13.8476 20.2835 13.8359 23.4097 13.8286C26.5374 13.8213 26.9094 13.833 28.1437 13.8872C29.2859 13.937 29.9067 14.1259 30.3182 14.2855C30.8659 14.4963 31.2554 14.7496 31.6683 15.1596C32.0783 15.5696 32.3331 15.9577 32.5469 16.5068C32.7079 16.9168 32.8997 17.5362 32.9539 18.6783C33.0125 19.9142 33.0271 20.2846 33.0315 23.4109C33.0374 26.5386 33.0257 26.9105 32.973 28.1435C32.9217 29.2856 32.7328 29.9065 32.5732 30.3209C32.386 30.8295 32.0873 31.2898 31.699 31.668C31.289 32.0809 30.901 32.3342 30.3534 32.5466C29.9419 32.7076 29.321 32.9009 28.1804 32.9551C26.946 33.0137 26.5755 33.0254 23.4463 33.0327C20.3186 33.0386 19.9496 33.0269 18.7137 32.9741M28.2638 17.1672C28.2644 17.54 28.4131 17.8973 28.6771 18.1605C28.9411 18.4237 29.2989 18.5713 29.6717 18.5707C30.0445 18.5701 30.4019 18.4214 30.6651 18.1574C30.9283 17.8934 31.0758 17.5356 31.0752 17.1628C31.0747 16.79 30.926 16.4326 30.662 16.1694C30.3979 15.9062 30.0402 15.7587 29.6673 15.7593C29.2945 15.7598 28.9372 15.9085 28.674 16.1725C28.4108 16.4366 28.2632 16.7944 28.2638 17.1672ZM17.4135 23.4402C17.4166 25.0353 18.0532 26.5639 19.1834 27.6897C19.743 28.2471 20.4069 28.6888 21.1372 28.9897C21.8675 29.2905 22.6499 29.4445 23.4397 29.443C24.2296 29.4415 25.0114 29.2844 25.7405 28.9807C26.4696 28.677 27.1318 28.2327 27.6892 27.6731C28.2466 27.1135 28.6884 26.4496 28.9892 25.7193C29.2901 24.989 29.4441 24.2066 29.4426 23.4167C29.4395 21.8216 28.8028 20.293 27.6727 19.1672C26.5425 18.0415 25.0115 17.4108 23.4163 17.4139C21.8211 17.417 20.2926 18.0537 19.1668 19.1838C18.041 20.314 17.4104 21.845 17.4135 23.4402ZM19.5235 23.4358C19.5225 22.9229 19.6226 22.4149 19.818 21.9407C20.0133 21.4666 20.3002 21.0355 20.6621 20.6722C21.0241 20.3089 21.4541 20.0204 21.9275 19.8233C22.4009 19.6261 22.9086 19.5242 23.4214 19.5232C23.9343 19.5222 24.4423 19.6223 24.9165 19.8177C25.3906 20.013 25.8217 20.2999 26.185 20.6619C26.5483 21.0238 26.8368 21.4538 27.0339 21.9272C27.2311 22.4007 27.333 22.9083 27.334 23.4211C27.335 23.934 27.2349 24.442 27.0395 24.9162C26.8442 25.3903 26.5573 25.8214 26.1954 26.1847C25.8334 26.548 25.4034 26.8365 24.93 27.0336C24.4565 27.2308 23.9489 27.3327 23.4361 27.3337C22.4003 27.3356 21.4062 26.9261 20.6725 26.1951C20.3092 25.8331 20.0207 25.4031 19.8236 24.9297C19.6264 24.4563 19.5245 23.9486 19.5235 23.4358Z" fill="white"/>
</svg>
