<svg width="47" height="47" viewBox="0 0 47 47" fill="none" xmlns="http://www.w3.org/2000/svg">
<rect width="46.8571" height="46.8571" rx="23.4286" fill="#2F2F2F"/>
<path d="M31.1601 31.1619H27.9065V26.0662C27.9065 24.8509 27.8845 23.2841 26.2137 23.2841C24.5196 23.2841 24.2604 24.6093 24.2604 25.9769V31.1605H21.0053V20.6821H24.1301V22.1141H24.174C24.4866 21.5796 24.9384 21.1399 25.4812 20.8418C26.024 20.5437 26.6375 20.3984 27.2563 20.4214C30.5539 20.4214 31.163 22.5915 31.163 25.4146L31.1616 31.1634L31.1601 31.1619ZM17.3343 19.2485C17.0863 19.2485 16.8406 19.1997 16.6115 19.1047C16.3823 19.0098 16.174 18.8707 15.9986 18.6953C15.8232 18.5199 15.6841 18.3116 15.5892 18.0825C15.4942 17.8533 15.4454 17.6076 15.4454 17.3596C15.4454 17.1115 15.4942 16.8659 15.5892 16.6367C15.6841 16.4076 15.8232 16.1993 15.9986 16.0239C16.174 15.8485 16.3823 15.7094 16.6115 15.6144C16.8406 15.5195 17.0863 15.4707 17.3343 15.4707C17.8353 15.4707 18.3158 15.6697 18.67 16.0239C19.0242 16.3782 19.2232 16.8586 19.2232 17.3596C19.2232 17.8606 19.0242 18.341 18.67 18.6953C18.3158 19.0495 17.8353 19.2485 17.3343 19.2485ZM18.9626 31.1605H15.7031V20.6806H18.9611V31.1619L18.9626 31.1605ZM32.7855 12.4469H14.0675C13.6425 12.4422 13.233 12.6065 12.9291 12.9036C12.6251 13.2007 12.4516 13.6063 12.4465 14.0313V32.8268C12.4516 33.2518 12.6251 33.6575 12.9291 33.9545C13.233 34.2516 13.6425 34.4159 14.0675 34.4112H32.784C33.2098 34.4167 33.6203 34.2529 33.9254 33.9558C34.2304 33.6587 34.405 33.2526 34.4108 32.8268V14.0283C34.4043 13.6031 34.2293 13.1978 33.9243 12.9013C33.6194 12.6048 33.2093 12.4414 32.784 12.4469" fill="white"/>
</svg>
