<svg width="23" height="23" viewBox="0 0 23 23" fill="none" xmlns="http://www.w3.org/2000/svg">
<path d="M16.6926 6.70754C16.637 6.69817 16.5721 6.69817 16.5164 6.70754C15.2367 6.6607 14.2166 5.60209 14.2166 4.29054C14.2166 2.95088 15.283 1.87354 16.6092 1.87354C17.9353 1.87354 19.0018 2.96025 19.0018 4.29054C18.9925 5.60209 17.9724 6.6607 16.6926 6.70754Z" stroke="white" stroke-width="1.39813" stroke-linecap="round" stroke-linejoin="round"/>
<path d="M15.7371 13.5278C17.0075 13.7433 18.4079 13.5184 19.3909 12.8533C20.6985 11.9727 20.6985 10.53 19.3909 9.64936C18.3986 8.98425 16.9797 8.7594 15.7092 8.98424" stroke="white" stroke-width="1.39813" stroke-linecap="round" stroke-linejoin="round"/>
<path d="M5.53596 6.70754C5.5916 6.69817 5.65652 6.69817 5.71216 6.70754C6.99193 6.6607 8.01204 5.60209 8.01204 4.29054C8.01204 2.95088 6.94556 1.87354 5.61942 1.87354C4.29328 1.87354 3.22681 2.96025 3.22681 4.29054C3.23608 5.60209 4.25619 6.6607 5.53596 6.70754Z" stroke="white" stroke-width="1.39813" stroke-linecap="round" stroke-linejoin="round"/>
<path d="M6.49147 13.5278C5.22097 13.7433 3.82064 13.5184 2.83763 12.8533C1.53004 11.9727 1.53004 10.53 2.83763 9.64936C3.82991 8.98425 5.24879 8.7594 6.51929 8.98424" stroke="white" stroke-width="1.39813" stroke-linecap="round" stroke-linejoin="round"/>
<path d="M11.1285 13.7056C11.0728 13.6962 11.0079 13.6962 10.9523 13.7056C9.67249 13.6588 8.65234 12.6002 8.65234 11.2886C8.65234 9.94896 9.71886 8.87158 11.045 8.87158C12.3711 8.87158 13.4376 9.95833 13.4376 11.2886C13.4283 12.6002 12.4082 13.6681 11.1285 13.7056Z" stroke="white" stroke-width="1.39813" stroke-linecap="round" stroke-linejoin="round"/>
<path d="M8.42967 16.6568C7.12208 17.5374 7.12208 18.9801 8.42967 19.8607C9.91349 20.8631 12.3432 20.8631 13.827 19.8607C15.1346 18.9801 15.1346 17.5374 13.827 16.6568C12.3525 15.6637 9.91349 15.6637 8.42967 16.6568Z" stroke="white" stroke-width="1.39813" stroke-linecap="round" stroke-linejoin="round"/>
</svg>
