<svg width="50" height="50" viewBox="0 0 50 50" fill="none" xmlns="http://www.w3.org/2000/svg">
<path fill-rule="evenodd" clip-rule="evenodd" d="M12.8635 2.06274C10.5197 2.06274 8.37698 3.38699 7.32878 5.48338L2.36864 15.4037C1.33713 17.4667 1.53864 19.9322 2.89144 21.8003L19.7406 45.0682C22.2111 48.4798 27.2939 48.4798 29.7644 45.0682L46.6136 21.8003C47.9663 19.9322 48.1678 17.4667 47.1365 15.4037L42.1762 5.48338C41.128 3.38699 38.9855 2.06274 36.6415 2.06274H12.8635ZM11.0186 7.32828C11.368 6.62947 12.0822 6.18806 12.8635 6.18806H17.8927L14.946 16.5014H6.43204L11.0186 7.32828ZM19.2364 16.5014L22.183 6.18806H27.322L30.2687 16.5014H19.2364ZM30.2103 20.6267H19.2946L24.7525 38.3647L30.2103 20.6267ZM28.7314 39.4613L34.5266 20.6267H42.3701L28.7314 39.4613ZM34.559 16.5014L31.6123 6.18806H36.6415C37.4228 6.18806 38.1371 6.62947 38.4865 7.32828L43.0731 16.5014H34.559ZM7.13491 20.6267H14.9784L20.7736 39.4613L7.13491 20.6267Z" fill="#2530FF"/>
</svg>
