<svg width="50" height="50" viewBox="0 0 50 50" fill="none" xmlns="http://www.w3.org/2000/svg">
<path d="M18.5643 24.7518L22.6896 28.8771L30.9402 20.6265M41.2535 24.7518C41.2535 33.9535 29.9914 40.6213 26.0752 42.6619C25.6518 42.8826 25.4399 42.9929 25.1462 43.0501C24.9173 43.0946 24.5872 43.0946 24.3583 43.0501C24.0646 42.9929 23.8527 42.8826 23.4293 42.6619C19.513 40.6213 8.25098 33.9535 8.25098 24.7518V16.95C8.25098 15.3009 8.25098 14.4763 8.52069 13.7675C8.75895 13.1414 9.14613 12.5827 9.64876 12.1397C10.2177 11.6383 10.9898 11.3488 12.5339 10.7697L23.5935 6.62242C24.0223 6.46161 24.2366 6.38121 24.4573 6.34932C24.6528 6.32106 24.8517 6.32106 25.0472 6.34932C25.2679 6.38121 25.4822 6.46161 25.9111 6.62242L36.9706 10.7697C38.5147 11.3488 39.2868 11.6383 39.8557 12.1397C40.3583 12.5827 40.7455 13.1414 40.9837 13.7675C41.2535 14.4763 41.2535 15.3009 41.2535 16.95V24.7518Z" stroke="#2530FF" stroke-width="4.12532" stroke-linecap="round" stroke-linejoin="round"/>
</svg>
