<svg width="50" height="50" viewBox="0 0 50 50" fill="none" xmlns="http://www.w3.org/2000/svg">
<path fill-rule="evenodd" clip-rule="evenodd" d="M40.8404 20.9978C40.201 14.4385 36.3232 4.12524 24.3392 4.12524C12.3551 4.12524 8.47731 14.4385 7.83789 20.9978C5.59477 21.8491 4.11517 24.0028 4.12505 26.402V29.2897C4.12505 32.4794 6.71086 35.0651 9.90055 35.0651C13.0902 35.0651 15.676 32.4794 15.676 29.2897V26.402C15.6656 24.0545 14.2404 21.9452 12.0663 21.0597C12.4789 17.2644 14.5003 8.25056 24.3392 8.25056C34.1781 8.25056 36.1788 17.2644 36.5914 21.0597C34.4217 21.9471 33.0037 24.0579 33.0023 26.402V29.2897C33.0113 31.507 34.2845 33.5249 36.282 34.4876C35.4157 36.1171 33.2086 38.3241 27.7838 38.9842C26.6994 37.3376 24.6014 36.6884 22.7766 37.4349C20.9517 38.1814 19.9102 40.1148 20.2907 42.0494C20.6713 43.9839 22.3675 45.3784 24.3392 45.3784C25.8972 45.3698 27.3174 44.4842 28.0107 43.0889C36.8595 42.0782 39.6854 37.5197 40.5723 34.8383C42.9718 34.061 44.5856 31.8118 44.5532 29.2897V26.402C44.5632 24.0028 43.0836 21.8491 40.8404 20.9978ZM11.5507 29.2897C11.5507 30.201 10.8119 30.9398 9.90055 30.9398C8.98921 30.9398 8.25042 30.201 8.25042 29.2897V26.402C8.25042 25.8124 8.56493 25.2677 9.07548 24.9729C9.58603 24.6782 10.2151 24.6782 10.7256 24.9729C11.2362 25.2677 11.5507 25.8124 11.5507 26.402V29.2897ZM37.1277 26.402C37.1277 25.4906 37.8664 24.7518 38.7778 24.7518C39.6891 24.7518 40.4279 25.4906 40.4279 26.402V29.2897C40.4279 30.201 39.6891 30.9398 38.7778 30.9398C37.8664 30.9398 37.1277 30.201 37.1277 29.2897V26.402Z" fill="#2530FF"/>
</svg>
