<svg width="24" height="23" viewBox="0 0 24 23" fill="none" xmlns="http://www.w3.org/2000/svg">
<path fill-rule="evenodd" clip-rule="evenodd" d="M2.73811 11.5C2.73811 6.35848 6.90612 2.19047 12.0476 2.19047C17.1891 2.19047 21.3571 6.35848 21.3571 11.5C21.3571 16.6414 17.1891 20.8095 12.0476 20.8095C10.2161 20.8095 8.51137 20.2818 7.07301 19.3704C6.80533 19.2009 6.47731 19.1556 6.17367 19.2461L3.02032 20.1873L4.2076 17.4091C4.34793 17.0807 4.31938 16.7046 4.13109 16.4013C3.24814 14.9784 2.73811 13.3004 2.73811 11.5ZM12.0476 0C5.69636 0 0.547641 5.14871 0.547641 11.5C0.547641 13.5131 1.06584 15.4081 1.97652 17.0558L0.0881352 21.4743C-0.0788028 21.865 -0.00480652 22.3169 0.277994 22.6338C0.560795 22.9509 1.0014 23.0757 1.40846 22.9542L6.33639 21.4836C8.01981 22.4485 9.9707 23 12.0476 23C18.3989 23 23.5476 17.8512 23.5476 11.5C23.5476 5.14871 18.3989 0 12.0476 0ZM14.5584 13.8902L13.1191 14.9041C12.4449 14.5201 11.6996 13.9841 10.952 13.2365C10.1749 12.4593 9.59867 11.6569 9.17383 10.9209L10.0885 10.1445C10.4811 9.81134 10.5885 9.24963 10.3467 8.79505L9.18119 6.60458C9.02424 6.30962 8.74125 6.10243 8.41267 6.04191C8.08408 5.9814 7.74585 6.07418 7.49412 6.29387L7.14856 6.59545C6.31757 7.32071 5.82611 8.5125 6.23344 9.71923C6.65573 10.9702 7.55694 12.9391 9.40317 14.7854C11.3895 16.7717 13.4071 17.5539 14.587 17.8577C15.5377 18.1024 16.4373 17.7744 17.0712 17.2578L17.7191 16.7299C17.9961 16.5042 18.1456 16.1574 18.1196 15.8009C18.0934 15.4444 17.8949 15.123 17.5878 14.94L15.7497 13.8448C15.3784 13.6236 14.9119 13.6414 14.5584 13.8902Z" fill="white"/>
</svg>
